<?xml version="1.0" standalone="no"?>
<!DOCTYPE svg PUBLIC "-//W3C//DTD SVG 1.0//EN" "http://www.w3.org/TR/2001/REC-SVG-20010904/DTD/svg10.dtd">
<svg xmlns="http://www.w3.org/2000/svg" xmlns:xlink="http://www.w3.org/1999/xlink" id="body_1" width="23" height="38">

<g transform="matrix(0.08812261 0 0 0.08812261 -0 0.58237493)">
    <path d="M96.654 28.75L96.19 29.5L143.595 29.231L191 28.962L191 105.981L191 183L194.25 182.85L197.5 182.7L194.75 182.284L192 181.867L192 104.934L192 28L144.559 28L97.118 28L96.654 28.75zM93.415 55C 93.415 65.175 93.564 69.337 93.745 64.25C 93.927 59.162 93.927 50.837 93.745 45.75C 93.564 40.662 93.415 44.825 93.415 55M56.75 62.579L40 77.071L40.245 167.285L40.489 257.5L40.75 167.324L41.011 77.149L57.505 62.995C 71.814 50.718 74.945 47.836 73.75 48.043C 73.612 48.067 65.963 54.608 56.75 62.579M58.319 262.749C 71.419 262.907 92.569 262.907 105.319 262.749C 118.068 262.591 107.35 262.461 81.5 262.462C 55.65 262.462 45.218 262.591 58.319 262.749M89.779 297.138L91.059 298.776L90.779 328.293L90.5 357.811L91.25 357.346L92 356.882L92 327.563L92 298.245L90.25 296.872L88.5 295.5L89.779 297.138zM110.094 297.386L108.944 298.773L109.252 313.136L109.559 327.5L109.78 312.95L110 298.4L111.2 297.2C 111.86 296.54 112.14 296 111.822 296C 111.505 296 110.727 296.624 110.094 297.386M31.442 327C 31.442 343.225 31.58 349.863 31.748 341.75C 31.916 333.637 31.916 320.362 31.748 312.25C 31.58 304.137 31.442 310.775 31.442 327M13.441 327C 13.441 342.675 13.579 349.087 13.748 341.25C 13.917 333.412 13.917 320.587 13.748 312.75C 13.579 304.912 13.441 311.325 13.441 327M169.248 327L169.436 355.5L169.968 328.5L170.5 301.5L169.78 300L169.061 298.5L169.248 327zM243.441 327C 243.441 342.675 243.579 349.087 243.748 341.25C 243.917 333.412 243.917 320.587 243.748 312.75C 243.579 304.912 243.441 311.325 243.441 327M224.857 301.25C 224.661 301.938 224.739 314.65 225.032 329.5L225.032 329.5L225.564 356.5L225.782 328.25C 225.983 302.198 225.833 297.831 224.857 301.25M109.217 343.25L109.435 356.5L109.747 343.816L110.059 331.131L112.279 330.702L114.5 330.272L111.75 330.136L109 330L109.217 343.25zM15.75 362.744C 20.287 362.929 27.712 362.929 32.25 362.744C 36.788 362.559 33.075 362.407 24 362.407C 14.925 362.407 11.212 362.559 15.75 362.744M93.296 362.744C 97.583 362.932 104.333 362.931 108.296 362.742C 112.258 362.552 108.75 362.399 100.5 362.4C 92.25 362.401 89.008 362.556 93.296 362.744M227.296 362.744C 231.583 362.932 238.333 362.931 242.296 362.742C 246.258 362.552 242.75 362.399 234.5 362.4C 226.25 362.401 223.008 362.556 227.296 362.744M6.201 375.534C 6.856 376.189 54.135 376.198 54.789 375.544C 55.065 375.268 44.133 375.041 30.495 375.038C 16.858 375.036 5.926 375.259 6.201 375.534M175 379.47C 175 381.962 175.349 384 175.776 384L175.776 384L176.553 384L176.171 380L175.79 376L187.835 376L199.879 376L200.294 379.509L200.71 383.017L200.605 379.259L200.5 375.5L187.75 375.22L175 374.94L175 379.47zM183.995 389.296L184.49 401.5L184.779 390.084L185.069 378.669L184.284 377.88L183.5 377.092L183.995 389.296zM122.655 403.25C 122.909 403.663 129.815 404 138 404C 146.185 404 153.091 403.663 153.345 403.25L153.345 403.25L153.809 402.5L138 402.5L122.191 402.5L122.655 403.25" stroke="none" fill="#95C6FB" fill-rule="nonzero" />
    <path d="M65.5 48.878L35.5 74.595L35.245 168.298L34.99 262L81.495 262L128 262L128 259.5L128 257L84 257L40 257L40 166.996L40 76.992L68.677 52.496L97.354 28L144.677 28L192 28L192 105L192 182L194.5 182L197 182L197 102.5L197 23L146.25 23.08L95.5 23.16L65.5 48.878zM94 55L94 73L71.5 73L49 73L49 76L49 79L74 79L99 79L99 58L99 37L96.5 37L94 37L94 55zM175.178 229.75C 170.674 248.863 166.992 265.288 166.995 266.25L166.995 266.25L167 268L168.933 268L170.865 268L171.366 266.25C 173.235 259.727 187 198.891 187 197.157L187 197.157L187 195L185.184 195L183.367 195L175.178 229.75zM146.402 218.14C 127.436 233.507 127.599 230.146 145.125 244.462C 159.296 256.038 161.316 257.224 162.337 254.565L162.337 254.565L162.887 253.131L159.193 249.815C 157.161 247.992 151.562 243.39 146.75 239.589C 136.127 231.198 135.742 233.319 149.942 222C 156.498 216.775 162.134 211.858 162.467 211.072L162.467 211.072L163.073 209.645L161.689 208.26L160.304 206.876L146.402 218.14zM191.667 208.667C 190.332 210.002 191.212 210.912 203.5 220.921C 210.375 226.521 216 231.279 216 231.494C 216 231.71 210.375 236.455 203.5 242.039C 190.464 252.628 190.121 253.026 192.397 254.914L192.397 254.914L193.794 256.074L205.147 246.947C 226.797 229.542 226.343 232.838 208.987 219.095C 195.718 208.589 193.238 207.095 191.667 208.667M7.188 293.739L7.523 295.477L9.511 295.823C 10.605 296.013 12.063 296.892 12.75 297.775L12.75 297.775L14 299.382L13.986 326.441C 13.979 341.324 13.701 354.513 13.369 355.752L13.369 355.752L12.766 358.003L9.878 358.752C 8.29 359.163 6.992 359.95 6.994 360.5L6.994 360.5L6.997 361.5L25.999 361.772L45.002 362.043L51.522 360.531C 60.209 358.517 65.313 355.782 70.995 350.1L70.995 350.1L75.713 345.382L77.95 339.441L80.187 333.5L79.792 324L79.396 314.5L77.469 310.5C 76.409 308.3 73.69 304.646 71.428 302.381L71.428 302.381L67.314 298.261L61.644 296.14L55.975 294.019L47.237 293.018C 42.432 292.467 31.38 292.013 22.677 292.008L22.677 292.008L6.853 292L7.188 293.739zM85.187 293.75L85.52 295.5L87.688 295.81C 88.88 295.981 90.344 296.71 90.943 297.431L90.943 297.431L92.031 298.742L91.765 328.121L91.5 357.5L88.406 358.5C 86.705 359.05 85.242 359.95 85.156 360.5L85.156 360.5L85 361.5L100.5 361.5L116 361.5L116.053 360.5C 116.082 359.95 115.294 359.341 114.303 359.147C 113.311 358.952 111.713 358.095 110.75 357.242L110.75 357.242L109 355.69L109 342.751L109 329.812L114.25 330.506C 124.409 331.848 126.892 334.542 129.489 347.04L129.489 347.04L131.04 354.5L132.841 357C 133.832 358.375 136.185 360.311 138.071 361.303L138.071 361.303L141.5 363.106L148.5 362.572C 152.35 362.278 160.338 362.059 166.25 362.084L166.25 362.084L177 362.131L177 360.69L177 359.25L174.054 358.661L171.109 358.072L170.039 356.072L168.968 354.072L169.234 326.453L169.5 298.833L182.506 330.667L195.511 362.5L198.362 362.5L201.212 362.5L213.356 331.107L225.5 299.714L225.781 326.607C 225.935 341.398 225.811 354.526 225.504 355.78L225.504 355.78L224.947 358.061L221.973 358.655L219 359.25L219 360.625L219 362L234.441 362L249.882 362L250.516 360.974L251.15 359.948L248.054 358.869C 246.351 358.275 244.517 356.967 243.979 355.961L243.979 355.961L243 354.131L243 327L243 299.869L244.035 297.934L245.07 296L246.785 295.985C 247.728 295.976 249.175 295.526 250 294.985L250 294.985L251.5 294L250 293.015L248.5 292.031L236.386 292.015L224.272 292L217.492 309.25C 213.764 318.738 209.46 329.65 207.929 333.5L207.929 333.5L205.146 340.5L204.012 337.5C 203.389 335.85 198.96 325.05 194.17 313.5L194.17 313.5L185.461 292.5L171.98 292.5L158.5 292.5L158.5 293.99L158.5 295.48L161.5 296L164.5 296.519L164.765 326.716L165.029 356.914L163.265 357.844C 162.294 358.356 158.874 358.677 155.665 358.558L155.665 358.558L149.83 358.343L149.014 357.022C 148.565 356.296 147.738 352.605 147.176 348.82L147.176 348.82L146.155 341.94L143.469 337.357L140.784 332.775L135.915 330.637C 130.312 328.177 129.922 327.467 133.75 326.697C 137.662 325.911 143.071 322.019 145.726 318.078L145.726 318.078L148 314.704L148 309.72L148 304.736L145.962 301.439L143.925 298.142L139.677 296.086C 137.341 294.955 133.022 293.573 130.079 293.015L130.079 293.015L124.727 292L104.79 292L84.853 292L85.187 293.75zM32.2 297.2L31 298.4L31 327.129L31 355.857L32.571 357.429C 34.444 359.301 37.483 359.411 43.751 357.832L43.751 357.832L48.388 356.665L52.538 352.515L56.688 348.365L58.429 343.433L60.17 338.5L60.688 330L61.205 321.5L59.564 314.5L57.922 307.5L55.395 303.671L52.868 299.843L48.684 297.943L44.5 296.044L38.95 296.022L33.4 296L32.2 297.2zM110.2 297.2L109 298.4L109 312.7L109 327L114.032 327L119.064 327L122.466 325.579L125.867 324.158L127.603 320.829L129.338 317.5L129.419 311.456L129.5 305.413L127.696 302.659C 126.703 301.144 124.453 299.028 122.696 297.956L122.696 297.956L119.5 296.007L115.45 296.004L111.4 296L110.2 297.2zM236.256 375.975C 230.505 377.34 228.108 381.523 230.09 386.736L230.09 386.736L230.979 389.074L237.341 391.929L243.703 394.783L244.301 396.343L244.9 397.902L243.106 400.118L241.312 402.333L238.209 402.333C 236.503 402.333 234.417 401.761 233.574 401.062L233.574 401.062L232.042 399.79L233.021 397.961C 233.559 396.955 234 395.652 234 395.066L234 395.066L234 394L231.5 394L229 394L229 396.066C 229 397.202 229.458 398.987 230.017 400.032L230.017 400.032L231.034 401.932L234.767 402.927L238.5 403.922L242.5 403.013L246.5 402.105L248.823 399.412L251.146 396.719L250.493 394.115C 249.533 390.29 248.563 389.465 241.514 386.469C 232.938 382.824 231.854 379.393 238.376 376.533C 241.856 375.007 241.133 374.817 236.256 375.975M6.002 380.25L6.003 384.5L7.752 381L9.5 377.5L12.25 377.184L15 376.867L15 389.36L15 401.853L13.25 402.311C 12.287 402.562 14.65 402.768 18.5 402.768C 22.35 402.768 24.712 402.562 23.75 402.311L23.75 402.311L22 401.853L22 389.36L22 376.867L24.75 377.184L27.5 377.5L29.248 381L30.997 384.5L30.998 380.25L31 376L18.5 376L6 376L6.002 380.25zM33.25 377.08L35 378.099L35 389.5L35 400.901L33.25 401.92L31.5 402.939L43.25 402.97L55 403L54.998 398.75L54.997 394.5L53.248 398L51.5 401.5L46.5 401.5L41.5 401.5L41.19 396.627C 41.02 393.947 41.105 391.169 41.379 390.455L41.379 390.455L41.878 389.155L43.825 389.664C 44.896 389.944 46.243 391.147 46.818 392.337L46.818 392.337L47.865 394.5L47.865 389L47.865 383.5L46.78 385.75L45.694 388L43.295 388L40.895 388L41.198 382.75L41.5 377.5L46.5 377.5L51.5 377.5L53.248 381L54.997 384.5L54.998 380.25L55 376L43.25 376.03L31.5 376.061L33.25 377.08zM59.75 376.63L61 377.167L61 389.5L61 401.833L59.75 402.338C 59.063 402.615 60.075 402.842 62 402.842C 63.925 402.842 64.938 402.615 64.25 402.338L64.25 402.338L63 401.833L63.084 390.667L63.169 379.5L64.982 383.5C 65.979 385.7 68.233 390.988 69.991 395.25L69.991 395.25L73.187 403L74.343 403L75.5 402.999L79.872 391.5C 85.193 377.503 85 377.525 85 390.927L85 390.927L85 401.853L83.25 402.311C 82.287 402.562 84.65 402.768 88.5 402.768C 92.35 402.768 94.713 402.562 93.75 402.311L93.75 402.311L92 401.853L92 389.5L92 377.147L93.75 376.689C 94.713 376.438 93.02 376.18 89.99 376.116L89.99 376.116L84.479 376L81 385C 76.761 395.964 77.109 395.953 72.88 385.25L72.88 385.25L69.424 376.5L63.962 376.297C 60.958 376.185 59.063 376.335 59.75 376.63M97.25 377.024L99 378.099L99 389.5L99 400.901L97.25 401.92L95.5 402.939L102.5 402.854C 106.35 402.807 108.713 402.562 107.75 402.311L107.75 402.311L106 401.853L106 397.521L106 393.188L110.981 392.503L115.962 391.818L118.481 389.836L121 387.855L121 384.082L121 380.31L118.898 378.405L116.795 376.5L106.148 376.225L95.5 375.949L97.25 377.024zM123.75 376.662L125 377.167L125 389.5L125 401.833L123.75 402.338C 123.063 402.615 129.475 402.825 138 402.805C 146.525 402.785 152.713 402.562 151.75 402.311C 149.737 401.785 149.627 401.111 150.975 397.565L150.975 397.565L151.95 395L156.94 395L161.93 395L162.965 396.934C 163.534 397.998 164 399.54 164 400.361L164 400.361L164 401.853L162.25 402.311C 161.287 402.562 163.875 402.768 168 402.768C 172.125 402.768 174.75 402.569 173.834 402.327L173.834 402.327L172.168 401.886L168.137 392.693C 165.92 387.637 163.401 381.813 162.539 379.75L162.539 379.75L160.973 376L159.487 376C 158.669 376 158 376.392 158 376.872C 158 377.351 155.701 383.201 152.892 389.872L152.892 389.872L147.783 402L146.392 402L145 402L144.998 398.25L144.997 394.5L143.248 398L141.5 401.5L137 401.5L132.5 401.5L132.215 390.012L131.93 378.524L133.656 377.262L135.382 376L128.941 376.079C 125.399 376.122 123.063 376.385 123.75 376.662M176.079 379.75L176.158 383.5L177.163 380.748L178.168 377.996L180.527 377.404C 181.825 377.078 183.362 377.106 183.943 377.465L183.943 377.465L185 378.118L185 389.509L185 400.901L183.25 401.92L181.5 402.939L187.941 402.97L194.382 403L192.656 401.738L190.93 400.476L191.215 388.988L191.5 377.5L193.555 377.206L195.61 376.912L197.202 378.706C 198.077 379.693 199.013 381.4 199.281 382.5L199.281 382.5L199.768 384.5L199.884 380.25L200 376L188 376L176 376L176.079 379.75zM202.25 376.689L204 377.147L204 389.5L204 401.853L202.25 402.311C 201.287 402.562 205.787 402.82 212.25 402.884L212.25 402.884L224 403L223.884 398.75L223.768 394.5L223.281 396.5C 223.013 397.6 222.095 399.288 221.242 400.25L221.242 400.25L219.69 402L215.345 402L211 402L211 395.594L211 389.187L213.083 389.732L215.167 390.277L216.02 392.388L216.873 394.5L216.873 389L216.873 383.5L215.969 385.75L215.064 388L213.032 388L211 388L211 382.5L211 377L215.345 377L219.69 377L221.242 378.75C 222.095 379.712 223.013 381.4 223.281 382.5L223.281 382.5L223.768 384.5L223.884 380.25L224 376L212.25 376.116C 205.787 376.18 201.287 376.438 202.25 376.689M243.5 376.93L245.5 377.719L245.5 381.109L245.5 384.5L247.5 384.5L249.5 384.5L249.811 382.311L250.123 380.123L248.061 378.061L246 376L243.75 376.07L241.5 376.141L243.5 376.93zM105.457 379.316C 105.137 380.59 105.016 383.853 105.188 386.566L105.188 386.566L105.5 391.5L108.493 391.279L111.485 391.057L112.743 389.337C 113.434 388.392 114 385.973 114 383.964L114 383.964L114 380.31L112.171 378.655C 111.165 377.745 109.374 377 108.19 377L108.19 377L106.038 377L105.457 379.316zM155.06 387.75C 154.321 389.813 153.508 392.063 153.252 392.75L153.252 392.75L152.786 394L156.96 394L161.135 394L160.441 391.75C 159.681 389.288 157.112 384 156.675 384C 156.525 384 155.798 385.688 155.06 387.75" stroke="none" fill="#76A3E5" fill-rule="nonzero" />
</g>
</svg>